<?xml version="1.0" standalone="no"?><!DOCTYPE svg PUBLIC "-//W3C//DTD SVG 1.1//EN" "http://www.w3.org/Graphics/SVG/1.1/DTD/svg11.dtd"><svg width="100%" height="100%" viewBox="0 0 12 14" version="1.1" xmlns="http://www.w3.org/2000/svg" xmlns:xlink="http://www.w3.org/1999/xlink" xml:space="preserve" style="fill-rule:evenodd;clip-rule:evenodd;stroke-linejoin:round;stroke-miterlimit:1.41421;"><path d="M11.438,0.028c-0.266,0.168 -0.476,0.294 -0.644,0.406c-0.56,0.35 -1.078,0.644 -1.596,0.882c-0.392,0.182 -0.84,0.35 -1.302,0.532c-0.154,0.042 -0.364,0.098 -0.63,0.196l-1.554,-2.044l-0.728,0.966c-0.07,0.112 -0.28,0.35 -0.518,0.686c-0.07,0.098 -0.154,0.238 -0.308,0.406c-0.112,-0.042 -0.224,-0.056 -0.28,-0.098c-0.952,-0.294 -1.946,-0.714 -3.192,-1.484c-0.182,-0.126 -0.42,-0.266 -0.686,-0.448l5.712,13.132l5.726,-13.132Z" style="fill:#34bbaa;fill-rule:nonzero;"/></svg>