<?xml version="1.0" standalone="no"?><!DOCTYPE svg PUBLIC "-//W3C//DTD SVG 1.1//EN" "http://www.w3.org/Graphics/SVG/1.1/DTD/svg11.dtd"><svg width="100%" height="100%" viewBox="0 0 58 49" version="1.1" xmlns="http://www.w3.org/2000/svg" xmlns:xlink="http://www.w3.org/1999/xlink" xml:space="preserve" style="fill-rule:evenodd;clip-rule:evenodd;stroke-linejoin:round;stroke-miterlimit:1.41421;"><g><path d="M17.431,28.779c-0.28,-0.297 -0.28,-0.783 0,-1.08l4.954,-5.255c0.28,-0.297 0.316,-0.812 0.079,-1.144l-0.499,-0.702c-0.236,-0.333 -0.66,-0.364 -0.942,-0.069l-6.87,7.175c-0.282,0.294 -0.282,0.777 0,1.071l6.87,7.174c0.282,0.295 0.706,0.264 0.942,-0.069l0.5,-0.702c0.236,-0.332 0.2,-0.848 -0.08,-1.145l-4.954,-5.254Z" style="fill:#34bbaa;fill-rule:nonzero;"/><path d="M32.356,19.859l-0.923,0c-0.407,0 -0.851,0.316 -0.984,0.701l-5.342,15.358c-0.134,0.385 0.09,0.7 0.498,0.7l0.922,0c0.407,0 0.851,-0.315 0.985,-0.7l5.342,-15.358c0.134,-0.385 -0.091,-0.701 -0.498,-0.701Z" style="fill:#34bbaa;fill-rule:nonzero;"/><path d="M36.938,20.529c-0.282,-0.295 -0.706,-0.264 -0.942,0.069l-0.499,0.702c-0.236,0.332 -0.201,0.847 0.079,1.144l4.955,5.255c0.28,0.297 0.28,0.783 0,1.08l-4.955,5.254c-0.28,0.297 -0.315,0.813 -0.079,1.145l0.499,0.702c0.236,0.333 0.66,0.364 0.942,0.069l6.871,-7.174c0.281,-0.294 0.281,-0.777 0,-1.071l-6.871,-7.175Z" style="fill:#34bbaa;fill-rule:nonzero;"/><path d="M54.518,0l-51.076,0c-1.898,0 -3.442,1.544 -3.442,3.443l0,41.659c0,1.898 1.544,3.443 3.442,3.443l51.076,0c1.899,0 3.443,-1.545 3.443,-3.443l0,-41.659c0,-1.899 -1.544,-3.443 -3.443,-3.443ZM23.829,4.334c0,-0.432 0.354,-0.786 0.785,-0.786l4.713,0c0.432,0 0.786,0.354 0.786,0.786l0,1.478c0,0.432 -0.354,0.786 -0.786,0.786l-4.713,0c-0.431,0 -0.785,-0.354 -0.785,-0.786l0,-1.478ZM14.153,4.334c0,-0.432 0.354,-0.786 0.786,-0.786l4.712,0c0.433,0 0.786,0.354 0.786,0.786l0,1.478c0,0.432 -0.353,0.786 -0.786,0.786l-4.712,0c-0.432,0 -0.786,-0.354 -0.786,-0.786l0,-1.478ZM4.723,4.334c0,-0.432 0.353,-0.786 0.785,-0.786l4.713,0c0.432,0 0.785,0.354 0.785,0.786l0,1.478c0,0.432 -0.353,0.786 -0.785,0.786l-4.713,0c-0.432,0 -0.785,-0.354 -0.785,-0.786l0,-1.478ZM55.207,44.649c0,0.453 -0.375,0.824 -0.832,0.824l-50.789,0c-0.457,0 -0.832,-0.371 -0.832,-0.824l0,-34.324c0,-0.453 0.375,-0.824 0.832,-0.824l50.789,0c0.457,0 0.832,0.371 0.832,0.824l0,34.324Z" style="fill:#34bbaa;fill-rule:nonzero;"/></g></svg>