<?xml version="1.0" standalone="no"?><!DOCTYPE svg PUBLIC "-//W3C//DTD SVG 1.1//EN" "http://www.w3.org/Graphics/SVG/1.1/DTD/svg11.dtd"><svg width="100%" height="100%" viewBox="0 0 54 59" version="1.1" xmlns="http://www.w3.org/2000/svg" xmlns:xlink="http://www.w3.org/1999/xlink" xml:space="preserve" style="fill-rule:evenodd;clip-rule:evenodd;stroke-linejoin:round;stroke-miterlimit:1.41421;"><clipPath id="_clip1"><rect x="0" y="0" width="53.967" height="59.648"/></clipPath><g clip-path="url(#_clip1)"><path d="M53.757,13.205c0,-2.463 -2.008,-4.471 -4.471,-4.471c-2.476,0 -4.485,2.008 -4.485,4.471c0,1.619 0.864,3.016 2.153,3.806l-8.552,8.51l-9.822,-9.819l0,-6.613l3.408,0c0.943,0 1.708,-0.767 1.708,-1.698c0,-0.943 -0.765,-1.71 -1.708,-1.71l-3.408,0l0,-3.971c0,-0.943 -0.764,-1.71 -1.707,-1.71c-0.943,0 -1.699,0.767 -1.699,1.71l0,3.971l-3.417,0c-0.931,0 -1.698,0.767 -1.698,1.71c0,0.931 0.767,1.698 1.698,1.698l3.417,0l0,6.613l-9.842,9.83l-8.674,-8.654c1.363,-0.779 2.295,-2.219 2.295,-3.883c0,-2.474 -2.008,-4.474 -4.482,-4.474c-2.463,0 -4.471,2 -4.471,4.474c0,1.741 1,3.226 2.451,3.959l0,33.287c0,0.943 0.767,1.707 1.699,1.707l11.495,0c0.099,0.023 0.199,0.023 0.298,0.023l33.664,-0.023c0.943,0 1.696,-0.764 1.696,-1.707l0,-33.065c1.454,-0.742 2.454,-2.241 2.454,-3.971ZM49.286,12.14c0.588,0 1.066,0.477 1.066,1.065c0,0.588 -0.478,1.076 -1.066,1.076c-0.599,0 -1.076,-0.488 -1.076,-1.076c0,-0.588 0.488,-1.065 1.076,-1.065ZM37.192,29.137c0.665,0.667 1.741,0.667 2.406,0l8.299,-8.254l0,24.742l-19.317,-19.329l0,-5.78l8.612,8.621ZM28.58,31.122l17.42,17.42l-17.42,0.012l0,-17.432ZM16.554,29.148l8.62,-8.632l0,5.78l-19.317,19.329l0,-24.731l8.288,8.254c0.668,0.656 1.744,0.665 2.409,0ZM4.471,11.93c0.599,0 1.076,0.477 1.076,1.065c0,0.588 -0.477,1.065 -1.076,1.065c-0.588,0 -1.065,-0.477 -1.065,-1.065c0,-0.588 0.477,-1.065 1.065,-1.065ZM15.966,48.542l-8.212,0l17.42,-17.42l0,17.443l-8.907,0.011c-0.102,-0.022 -0.202,-0.034 -0.301,-0.034ZM51.116,57.041c0,0.943 -0.764,1.698 -1.707,1.698l-45.447,0c-0.946,0 -1.698,-0.755 -1.698,-1.698c0,-0.932 0.752,-1.707 1.698,-1.707l45.447,0c0.943,0 1.707,0.775 1.707,1.707Z" style="fill:#e2a607;fill-rule:nonzero;"/></g></svg>